<svg width="600" height="400" viewBox="0 0 600 400" fill="none" xmlns="http://www.w3.org/2000/svg">
<rect width="600" height="400" fill="#F9FAFB"/>
<rect x="100" y="100" width="400" height="200" rx="20" fill="#FFFFFF" stroke="#E5E7EB" stroke-width="2"/>

<circle cx="150" cy="150" r="20" fill="#3B82F6"/>
<circle cx="200" cy="150" r="20" fill="#10B981"/>
<circle cx="250" cy="150" r="20" fill="#FBBF24"/>

<path d="M130 200 H470 V250 H130 Z" fill="#E0F2F7"/>
<rect x="150" y="210" width="80" height="15" rx="5" fill="#3B82F6"/>
<rect x="240" y="210" width="100" height="15" rx="5" fill="#3B82F6" opacity="0.7"/>
<rect x="350" y="210" width="60" height="15" rx="5" fill="#3B82F6" opacity="0.5"/>
<rect x="420" y="210" width="50" height="15" rx="5" fill="#3B82F6" opacity="0.3"/>

<path d="M300 120 L320 140 L300 160 Z" fill="#3B82F6"/>
<path d="M300 120 L280 140 L300 160 Z" fill="#3B82F6"/>

<rect x="350" y="120" width="100" height="15" rx="5" fill="#6B7280"/>
<rect x="350" y="145" width="80" height="15" rx="5" fill="#6B7280" opacity="0.7"/>
<rect x="350" y="170" width="90" height="15" rx="5" fill="#6B7280" opacity="0.5"/>

<path d="M220 280 Q250 260 280 280 Q310 300 340 280 Q370 260 400 280" stroke="#3B82F6" stroke-width="3" fill="none"/>
<circle cx="220" cy="280" r="5" fill="#3B82F6"/>
<circle cx="280" cy="280" r="5" fill="#3B82F6"/>
<circle cx="340" cy="280" r="5" fill="#3B82F6"/>
<circle cx="400" cy="280" r="5" fill="#3B82F6"/>

<text x="130" y="360" font-family="Inter, sans-serif" font-size="16" fill="#6B7280">AI-powered Growth Platform</text>
</svg>
